HIERARCHY
ROOT pelvis
{
	OFFSET 0.003123 -0.351407 0.012037
	CHANNELS 6 Xposition Yposition Zposition Zrotation Yrotation Xrotation 
	JOINT left_hip
	{
		OFFSET 0.058189 -0.092763 -0.026001
		CHANNELS 3 Zrotation Yrotation Xrotation
		JOINT left_knee
		{
			OFFSET 0.054695 -0.378753 -0.009396
			CHANNELS 3 Zrotation Yrotation Xrotation
			JOINT left_ankle
			{
				OFFSET -0.043453 -0.403059 -0.031876
				CHANNELS 3 Zrotation Yrotation Xrotation
				JOINT left_foot
				{
					OFFSET 0.047257 -0.057997 0.118216
					CHANNELS 3 Zrotation Yrotation Xrotation
					End Site
					{
						OFFSET 0.000000 0.000000 0.000000
					}
				}
			}
		}
	}
	JOINT right_hip
	{
		OFFSET -0.063267 -0.103908 -0.021250
		CHANNELS 3 Zrotation Yrotation Xrotation
		JOINT right_knee
		{
			OFFSET -0.044210 -0.362380 -0.016824
			CHANNELS 3 Zrotation Yrotation Xrotation
			JOINT right_ankle
			{
				OFFSET 0.015417 -0.410728 -0.020192
				CHANNELS 3 Zrotation Yrotation Xrotation
				JOINT right_foot
				{
					OFFSET -0.038812 -0.058328 0.119049
					CHANNELS 3 Zrotation Yrotation Xrotation
					End Site
					{
						OFFSET 0.000000 0.000000 0.000000
					}
				}
			}
		}
	}
	JOINT spine_1
	{
		OFFSET -0.002763 0.109891 -0.027618
		CHANNELS 3 Zrotation Yrotation Xrotation
		JOINT spine_2
		{
			OFFSET 0.009448 0.131853 -0.005940
			CHANNELS 3 Zrotation Yrotation Xrotation
			JOINT spine_3
			{
				OFFSET -0.011330 0.052235 0.028447
				CHANNELS 3 Zrotation Yrotation Xrotation
				JOINT neck
				{
					OFFSET -0.012164 0.165167 -0.031615
					CHANNELS 3 Zrotation Yrotation Xrotation
					JOINT head
					{
						OFFSET 0.024783 0.160452 0.020737
						CHANNELS 3 Zrotation Yrotation Xrotation
						End Site
						{
							OFFSET 0.000000 0.000000 0.000000
						}
					}
				}
				JOINT left_collar
				{
					OFFSET 0.046364 0.084944 -0.007220
					CHANNELS 3 Zrotation Yrotation Xrotation
					JOINT left_shoulder
					{
						OFFSET 0.119239 0.057728 -0.015461
						CHANNELS 3 Zrotation Yrotation Xrotation
						JOINT left_elbow
						{
							OFFSET 0.254123 -0.072151 -0.042459
							CHANNELS 3 Zrotation Yrotation Xrotation
							JOINT left_wrist
							{
								OFFSET 0.251987 0.023221 -0.002472
								CHANNELS 3 Zrotation Yrotation Xrotation
								JOINT left_index_1
								{
									OFFSET 0.101902 -0.008688 0.019351
									CHANNELS 3 Zrotation Yrotation Xrotation
									JOINT left_index_2
									{
										OFFSET 0.030149 -0.011154 0.001151
										CHANNELS 3 Zrotation Yrotation Xrotation
										JOINT left_index_3
										{
											OFFSET 0.006504 -0.021577 -0.002433
											CHANNELS 3 Zrotation Yrotation Xrotation
											End Site
											{
												OFFSET 0.000000 0.000000 0.000000
											}
										}
									}
								}
								JOINT left_middle_1
								{
									OFFSET 0.109398 -0.006328 -0.003981
									CHANNELS 3 Zrotation Yrotation Xrotation
									JOINT left_middle_2
									{
										OFFSET 0.026472 -0.015218 -0.004641
										CHANNELS 3 Zrotation Yrotation Xrotation
										JOINT left_middle_3
										{
											OFFSET 0.005022 -0.023347 -0.001911
											CHANNELS 3 Zrotation Yrotation Xrotation
											End Site
											{
												OFFSET 0.000000 0.000000 0.000000
											}
										}
									}
								}
								JOINT left_pinky_1
								{
									OFFSET 0.084047 -0.014539 -0.043750
									CHANNELS 3 Zrotation Yrotation Xrotation
									JOINT left_pinky_2
									{
										OFFSET 0.012124 -0.014448 -0.005375
										CHANNELS 3 Zrotation Yrotation Xrotation
										JOINT left_pinky_3
										{
											OFFSET 0.003798 -0.018853 0.000167
											CHANNELS 3 Zrotation Yrotation Xrotation
											End Site
											{
												OFFSET 0.000000 0.000000 0.000000
											}
										}
									}
								}
								JOINT left_ring_1
								{
									OFFSET 0.097444 -0.009268 -0.027345
									CHANNELS 3 Zrotation Yrotation Xrotation
									JOINT left_ring_2
									{
										OFFSET 0.023561 -0.016057 -0.001895
										CHANNELS 3 Zrotation Yrotation Xrotation
										JOINT left_ring_3
										{
											OFFSET 0.004257 -0.023548 0.000814
											CHANNELS 3 Zrotation Yrotation Xrotation
											End Site
											{
												OFFSET 0.000000 0.000000 0.000000
											}
										}
									}
								}
								JOINT left_thumb_1
								{
									OFFSET 0.040636 -0.017977 0.025611
									CHANNELS 3 Zrotation Yrotation Xrotation
									JOINT left_thumb_2
									{
										OFFSET 0.021637 -0.017639 0.011623
										CHANNELS 3 Zrotation Yrotation Xrotation
										JOINT left_thumb_3
										{
											OFFSET 0.024002 -0.008356 0.006548
											CHANNELS 3 Zrotation Yrotation Xrotation
											End Site
											{
												OFFSET 0.000000 0.000000 0.000000
											}
										}
									}
								}
							}
						}
					}
				}
				JOINT right_collar
				{
					OFFSET -0.047695 0.084339 -0.013400
					CHANNELS 3 Zrotation Yrotation Xrotation
					JOINT right_shoulder
					{
						OFFSET -0.102578 0.053524 -0.012669
						CHANNELS 3 Zrotation Yrotation Xrotation
						JOINT right_elbow
						{
							OFFSET -0.271150 -0.036492 -0.026467
							CHANNELS 3 Zrotation Yrotation Xrotation
							JOINT right_wrist
							{
								OFFSET -0.249267 -0.004533 -0.015325
								CHANNELS 3 Zrotation Yrotation Xrotation
								JOINT right_index_1
								{
									OFFSET -0.099881 -0.011783 0.019600
									CHANNELS 3 Zrotation Yrotation Xrotation
									JOINT right_index_2
									{
										OFFSET -0.030148 -0.011154 0.001151
										CHANNELS 3 Zrotation Yrotation Xrotation
										JOINT right_index_3
										{
											OFFSET -0.006505 -0.021577 -0.002432
											CHANNELS 3 Zrotation Yrotation Xrotation
											End Site
											{
												OFFSET 0.000000 0.000000 0.000000
											}
										}
									}
								}
								JOINT right_middle_1
								{
									OFFSET -0.107376 -0.009422 -0.003734
									CHANNELS 3 Zrotation Yrotation Xrotation
									JOINT right_middle_2
									{
										OFFSET -0.026472 -0.015218 -0.004641
										CHANNELS 3 Zrotation Yrotation Xrotation
										JOINT right_middle_3
										{
											OFFSET -0.005022 -0.023347 -0.001911
											CHANNELS 3 Zrotation Yrotation Xrotation
											End Site
											{
												OFFSET 0.000000 0.000000 0.000000
											}
										}
									}
								}
								JOINT right_pinky_1
								{
									OFFSET -0.082027 -0.017634 -0.043503
									CHANNELS 3 Zrotation Yrotation Xrotation
									JOINT right_pinky_2
									{
										OFFSET -0.012123 -0.014448 -0.005374
										CHANNELS 3 Zrotation Yrotation Xrotation
										JOINT right_pinky_3
										{
											OFFSET -0.003798 -0.018852 0.000167
											CHANNELS 3 Zrotation Yrotation Xrotation
											End Site
											{
												OFFSET 0.000000 0.000000 0.000000
											}
										}
									}
								}
								JOINT right_ring_1
								{
									OFFSET -0.095423 -0.012362 -0.027099
									CHANNELS 3 Zrotation Yrotation Xrotation
									JOINT right_ring_2
									{
										OFFSET -0.023561 -0.016057 -0.001895
										CHANNELS 3 Zrotation Yrotation Xrotation
										JOINT right_ring_3
										{
											OFFSET -0.004257 -0.023548 0.000816
											CHANNELS 3 Zrotation Yrotation Xrotation
											End Site
											{
												OFFSET 0.000000 0.000000 0.000000
											}
										}
									}
								}
								JOINT right_thumb_1
								{
									OFFSET -0.038613 -0.021074 0.025861
									CHANNELS 3 Zrotation Yrotation Xrotation
									JOINT right_thumb_2
									{
										OFFSET -0.021636 -0.017639 0.011623
										CHANNELS 3 Zrotation Yrotation Xrotation
										JOINT right_thumb_3
										{
											OFFSET -0.024004 -0.008353 0.006547
											CHANNELS 3 Zrotation Yrotation Xrotation
											End Site
											{
												OFFSET 0.000000 0.000000 0.000000
											}
										}
									}
								}
							}
						}
					}
				}
			}
		}
	}
}
MOTION
Frames: 4
Frame Time: 0.050000
0.043723 0.733513 0.087700 -3.114643 27.855063 -36.307391 0.306736 -7.441032 -30.732679 -32.838316 3.985693 74.007479 4.179596 1.233564 -9.157022 0.000000 0.000000 0.000000 -29.015559 -8.023605 -19.561993 4.817736 -12.930854 80.319552 17.921442 37.996426 -0.157967 0.000000 0.000000 0.000000 -10.270905 -11.239353 84.435734 -14.058898 3.224786 -17.025961 16.398788 30.474340 12.845915 -6.653375 0.601549 1.159979 0.000000 0.000000 0.000000 -10.057588 -18.189840 5.738385 -32.235139 -21.866335 -7.126255 -107.743913 -67.550794 84.980591 12.470228 -10.035069 38.816437 -28.929036 11.880835 -1.906336 1.940259 5.451474 13.961749 0.000000 0.000000 0.000000 -24.481918 7.216236 -5.319755 -39.432522 12.281576 4.881241 0.000000 0.000000 0.000000 47.766050 -9.622497 -1.078419 -13.018352 11.116987 16.253870 0.000000 0.000000 0.000000 -3.862645 5.367211 -0.399755 -66.844544 7.945868 -2.013212 0.000000 0.000000 0.000000 -0.123282 27.119643 22.763266 -2.739063 -8.511659 -1.698124 0.000000 0.000000 0.000000 -6.781973 11.504659 4.279374 -29.537555 38.663323 -8.275397 -47.396026 25.255584 -4.615188 -38.938843 -8.456175 -55.879878 -39.334361 36.027181 7.347552 -63.778869 -43.977933 165.977797 0.000000 0.000000 0.000000 16.306455 58.712503 -2.132917 41.410207 33.452563 -59.045457 0.000000 0.000000 0.000000 -10.826222 49.770008 -50.568722 -10.749421 -0.306325 4.330583 0.000000 0.000000 0.000000 19.668313 61.974302 -10.722429 3.361448 10.567857 -35.070148 0.000000 0.000000 0.000000 -81.002323 -10.171877 13.303462 38.585517 22.257876 11.378849 0.000000 0.000000 0.000000 
0.045018 0.733513 0.089020 -3.221465 27.466963 -36.585511 0.872367 -7.237533 -30.670816 -33.300024 4.470404 74.145728 4.003174 1.244765 -8.730596 0.000000 0.000000 0.000000 -28.435292 -7.829488 -19.934711 4.353999 -12.570564 81.016274 18.026024 37.445524 0.407740 0.000000 0.000000 0.000000 -10.381440 -10.873256 84.136243 -13.893406 3.304673 -16.687123 16.208887 30.319993 12.308311 -6.213700 0.510913 1.534415 0.000000 0.000000 0.000000 -10.263048 -17.854829 5.515285 -32.066450 -21.635040 -7.031882 -107.794019 -67.579800 85.084144 12.640628 -10.012226 39.160694 -30.500260 12.197127 -2.428864 1.218690 6.344577 15.234847 0.000000 0.000000 0.000000 -27.292540 8.354843 -6.372819 -38.514071 11.464638 4.810176 0.000000 0.000000 0.000000 47.091041 -10.093786 -1.760892 -13.556433 12.781087 18.542568 0.000000 0.000000 0.000000 -5.860757 5.595060 -0.713764 -64.055777 9.383852 -0.026127 0.000000 0.000000 0.000000 0.122820 26.342982 22.160813 -3.305080 -9.645244 -1.847325 0.000000 0.000000 0.000000 -5.682758 12.208057 4.948275 -30.258661 38.376730 -8.509011 -47.048313 25.517454 -4.933308 -39.303233 -7.769262 -55.884942 -38.619782 33.679362 7.291476 -64.286674 -39.902493 166.281969 0.000000 0.000000 0.000000 16.613737 62.420427 -1.389907 44.474506 34.134119 -60.194279 0.000000 0.000000 0.000000 -9.532426 50.245059 -50.746526 -8.684239 -1.437521 10.313007 0.000000 0.000000 0.000000 20.904080 61.968793 -9.918023 7.729010 11.483512 -33.646003 0.000000 0.000000 0.000000 -80.025395 -9.867780 10.832394 41.907905 21.007030 13.492205 0.000000 0.000000 0.000000 
0.046667 0.732224 0.090340 -3.305622 27.361806 -36.796765 1.184283 -7.191658 -30.792024 -33.788262 4.927595 74.454358 3.794857 0.978315 -8.524020 0.000000 0.000000 0.000000 -28.128285 -7.790580 -20.286803 3.868464 -12.234515 81.815905 17.974215 36.986779 0.673332 0.000000 0.000000 0.000000 -10.184855 -10.854992 83.715740 -13.819199 3.216127 -16.965229 16.300811 30.091909 12.945933 -5.952550 0.521669 1.442656 0.000000 0.000000 0.000000 -10.229254 -17.677850 5.438584 -32.181691 -21.745791 -7.076613 -107.995817 -67.988421 85.857726 12.285421 -9.631401 38.052443 -30.584954 12.958136 -2.255173 0.803605 6.271400 14.938032 0.000000 0.000000 0.000000 -26.081212 7.850683 -5.778950 -38.670639 12.204908 5.824018 0.000000 0.000000 0.000000 47.203459 -10.055281 -1.122486 -12.326923 11.591906 18.612096 0.000000 0.000000 0.000000 -4.754481 5.416842 -0.429854 -66.515327 7.396868 -2.225584 0.000000 0.000000 0.000000 -0.291197 25.732927 21.802252 -3.643685 -7.761649 -1.084148 0.000000 0.000000 0.000000 -4.907802 12.234289 5.144045 -30.950924 38.542447 -8.760326 -47.035113 25.700104 -5.181399 -39.664004 -7.617740 -57.518351 -37.746789 38.450342 7.510283 -64.988243 -40.057570 167.464583 0.000000 0.000000 0.000000 22.572990 65.129256 3.710595 48.532071 33.809174 -57.666513 0.000000 0.000000 0.000000 -7.890411 51.360717 -50.207174 -7.449035 -1.534872 10.170047 0.000000 0.000000 0.000000 25.131625 62.317648 -6.838884 8.614840 12.472583 -35.190524 0.000000 0.000000 0.000000 -77.697388 -9.863538 9.574067 42.788104 21.564131 14.146888 0.000000 0.000000 0.000000 
0.047609 0.732224 0.091660 -3.297413 27.325238 -37.379578 1.325931 -6.992757 -30.312177 -34.228030 5.216322 74.656354 3.579996 0.961824 -8.007980 0.000000 0.000000 0.000000 -27.808550 -7.625874 -20.101206 3.123281 -11.713657 82.502682 18.191892 36.727754 1.209787 0.000000 0.000000 0.000000 -10.510814 -10.627153 83.854832 -13.997711 3.311971 -16.869038 16.978468 29.811589 13.388048 -6.404587 0.596870 1.335829 0.000000 0.000000 0.000000 -10.336594 -17.362114 5.267036 -32.261507 -21.752404 -7.059456 -108.242757 -68.405602 86.687650 12.098651 -9.124804 38.151990 -29.520122 12.408481 -1.948328 -1.055827 6.017888 12.875489 0.000000 0.000000 0.000000 -27.204972 6.998095 -6.350461 -40.741036 11.232685 3.203707 0.000000 0.000000 0.000000 47.099030 -9.946211 -0.856113 -14.043140 11.462639 16.522742 0.000000 0.000000 0.000000 -5.055714 6.318326 -0.192345 -67.115234 7.521156 -2.016092 0.000000 0.000000 0.000000 -0.369491 25.231899 21.397938 -2.716479 -8.283902 -1.649100 0.000000 0.000000 0.000000 -5.107467 12.560103 5.244753 -31.035999 38.211661 -8.690895 -47.547863 26.271804 -5.541877 -39.397742 -7.692191 -57.309349 -37.348541 40.034350 7.365275 -66.524782 -40.285696 169.488207 0.000000 0.000000 0.000000 22.747779 65.724522 3.961538 45.962226 33.260027 -58.931558 0.000000 0.000000 0.000000 -7.180128 50.866112 -49.524771 -8.315271 -1.300974 9.363465 0.000000 0.000000 0.000000 25.802682 62.531181 -6.360783 13.483910 13.192747 -33.314386 0.000000 0.000000 0.000000 -81.333165 -10.503608 14.543362 38.959143 23.779045 11.614143 0.000000 0.000000 0.000000 
